<svg width="32" height="32" viewBox="0 0 32 32" fill="none" xmlns="http://www.w3.org/2000/svg">
<g filter="url(#filter0_b_192108_9)">
<path d="M0 0H32V32H0V0Z" fill="white"/>
</g>
<path d="M5.02973 14.5436L6.06183 14.0654L7.69322 11.7701L8.19263 11.5789L8.72533 13.906L8.02616 14.0017L7.49346 13.0453L7.09394 14.5436H8.8585L10.6897 14.9899L11.4221 14.5436L12.654 15.755L13.1867 13.5235L14.0523 14.3523L14.585 13.651L15.4507 13.4279L16.7158 12.3121L16.9156 11.7701L17.9477 11.9295L18.3805 12.4715L17.6147 14.0017L19.5125 13.0772V12.6309L20.2449 12.4715L21.044 13.2366L21.843 12.3121V11.6745L23.1415 10.8138L23.6742 10.0805H24.5065L25.9715 7.24329L27.2366 6L27.7027 6.70134L26.9703 7.59396L27.2366 8.16779L27.9358 8.2953L28.5018 10.6544V12.6309L29.5006 13.9379L30 15.755L28.2687 14.703L27.503 11.6745L27.0369 11.7701L26.9703 13.8104L25.7051 15.755L25.3389 18.7198L26.2045 18.9111L26.5708 18.4966L27.4031 19.3893L28.0357 22.0671L27.9691 23.7886H27.17L26.8704 21.3658L26.3044 22.099L25.0725 21.844L24.0737 21.047L22.9417 21.4295L23.0083 23.151L22.1094 23.3742L20.7776 24.3305L19.1795 24.1393L18.547 23.7886L17.5482 23.948L17.8811 24.3305L17.082 24.7768L16.4495 24.4899L15.2509 25L13.4197 24.1393L12.7206 22.6091L12.1213 22.6728L11.4221 22.1309L11.3888 21.7164L9.15815 21.4933L8.79191 22.6409L7.39358 22.0352L6.69441 20.9195H5.1962L5.02973 22.7047L4.16409 22.9597L3.73127 24.5856L3.39834 24.2987L2 20.8876L3.66469 20.1225L3.39834 18.6242L3.13199 17.094L3.86445 16.1057L3.63139 15.5L4.6302 14.4799L5.02973 14.5436ZM27.17 18.3054L28.7015 20.4732L29.201 20.2819L28.5684 19.3893L27.17 17.9866V18.3054ZM11.522 13.906V13.2685L12.6873 12.4715L13.6861 11.9933H12.5208L11.4887 12.5671L10.8561 13.1091V13.906H11.522Z" fill="#2A2C2F"/>
<defs>
<filter id="filter0_b_192108_9" x="-4" y="-4" width="40" height="40" filterUnits="userSpaceOnUse" color-interpolation-filters="sRGB">
<feFlood flood-opacity="0" result="BackgroundImageFix"/>
<feGaussianBlur in="BackgroundImage" stdDeviation="2"/>
<feComposite in2="SourceAlpha" operator="in" result="effect1_backgroundBlur_192108_9"/>
<feBlend mode="normal" in="SourceGraphic" in2="effect1_backgroundBlur_192108_9" result="shape"/>
</filter>
</defs>
</svg>
